<svg width="25" height="26" viewBox="0 0 25 26" fill="none" xmlns="http://www.w3.org/2000/svg">

<path d="M19.4791 18.2612C19.8958 18.6779 19.8958 19.3029 19.4791 19.7196C19.2708 19.9279 19.0625 20.0321 18.75 20.0321C18.4375 20.0321 18.2291 19.9279 18.0208 19.7196L12.5 14.1987L6.97915 19.7196C6.77081 19.9279 6.56248 20.0321 6.24998 20.0321C5.93748 20.0321 5.72915 19.9279 5.52081 19.7196C5.10415 19.3029 5.10415 18.6779 5.52081 18.2612L11.0416 12.7404L5.52081 7.21956C5.10415 6.8029 5.10415 6.1779 5.52081 5.76123C5.93748 5.34456 6.56248 5.34456 6.97915 5.76123L12.5 11.2821L18.0208 5.76123C18.4375 5.34456 19.0625 5.34456 19.4791 5.76123C19.8958 6.1779 19.8958 6.8029 19.4791 7.21956L13.9583 12.7404L19.4791 18.2612Z" fill="#000"/>


</svg>
